<svg xmlns="http://www.w3.org/2000/svg" xmlns:xlink="http://www.w3.org/1999/xlink" width="80" zoomAndPan="magnify" viewBox="0 0 60 60" height="80" preserveAspectRatio="xMidYMid meet" version="1.0"><defs><clipPath id="b181681c24"><path d="M 19 2.164062 L 34 2.164062 L 34 11 L 19 11 Z M 19 2.164062 " clip-rule="nonzero"/></clipPath><clipPath id="af21ad320c"><path d="M 9 29 L 43 29 L 43 57.664062 L 9 57.664062 Z M 9 29 " clip-rule="nonzero"/></clipPath><clipPath id="9ab1fb7f82"><path d="M 4 9 L 58.542969 9 L 58.542969 40 L 4 40 Z M 4 9 " clip-rule="nonzero"/></clipPath></defs><g clip-path="url(#b181681c24)"><path fill="#f9880d" d="M 26.457031 2.222656 C 28.320312 2.222656 30.179688 2.207031 32.039062 2.226562 C 33.382812 2.242188 33.84375 2.707031 33.851562 4.0625 C 33.863281 7.046875 33.8125 6.285156 33.886719 9.269531 C 33.914062 10.429688 33.269531 10.375 32.484375 10.390625 C 31.667969 10.402344 31.054688 10.390625 31.097656 9.257812 C 31.171875 7.050781 31.085938 8.582031 31.132812 6.375 C 31.15625 5.386719 30.816406 4.96875 29.796875 4.988281 C 27.550781 5.027344 25.300781 5.011719 23.054688 4.988281 C 22.132812 4.980469 21.734375 5.335938 21.753906 6.304688 C 21.804688 8.511719 21.707031 6.980469 21.792969 9.1875 C 21.839844 10.359375 21.246094 10.398438 20.375 10.394531 C 19.554688 10.386719 18.972656 10.375 19 9.253906 C 19.070312 6.269531 19.019531 7.027344 19.03125 4.042969 C 19.039062 2.71875 19.53125 2.242188 20.875 2.230469 C 22.738281 2.214844 24.597656 2.226562 26.457031 2.226562 Z M 26.457031 2.222656 " fill-opacity="1" fill-rule="nonzero"/></g><path fill="#f9880d" d="M 10.8125 35.15625 C 14.78125 36.121094 19.121094 35.546875 23.101562 34.59375 C 30.648438 32.710938 37.023438 30.1875 42.964844 25.847656 L 42.964844 16.839844 C 42.960938 13.109375 41.117188 11.25 37.414062 11.246094 C 30.125 11.242188 22.839844 11.242188 15.554688 11.246094 C 11.820312 11.246094 9.960938 13.054688 9.949219 16.785156 C 9.9375 22.824219 9.933594 28.863281 9.933594 34.902344 C 10.230469 34.996094 10.527344 35.078125 10.8125 35.160156 Z M 10.8125 35.15625 " fill-opacity="1" fill-rule="nonzero"/><g clip-path="url(#af21ad320c)"><path fill="#cecece" d="M 42.964844 32.699219 L 42.964844 29.582031 C 37.722656 35.796875 29.984375 39.320312 22.058594 40.558594 C 18.027344 41.183594 13.867188 41.207031 9.933594 39.742188 L 9.933594 47.0625 C 9.933594 47.445312 9.945312 47.835938 9.988281 48.222656 C 10.25 50.566406 11.65625 52.175781 13.960938 52.617188 C 14.773438 52.769531 14.980469 53.15625 14.980469 53.863281 C 14.984375 54.519531 14.957031 55.191406 15.078125 55.828125 C 15.292969 57.027344 16.207031 57.753906 17.355469 57.765625 C 18.496094 57.773438 19.441406 57.050781 19.679688 55.882812 C 19.804688 55.28125 19.835938 54.644531 19.792969 54.03125 C 19.722656 53.023438 20.109375 52.667969 21.128906 52.6875 C 24.269531 52.738281 27.410156 52.6875 30.550781 52.710938 C 33.128906 52.730469 33.195312 52.28125 33.132812 55.128906 C 33.132812 55.242188 33.140625 55.359375 33.152344 55.476562 C 33.316406 56.875 34.304688 57.792969 35.613281 57.761719 C 36.839844 57.734375 37.792969 56.792969 37.917969 55.433594 C 37.972656 54.816406 37.875 54.179688 37.992188 53.582031 C 38.058594 53.253906 38.375 52.804688 38.671875 52.714844 C 41.882812 51.742188 42.96875 50.332031 42.96875 47 C 42.96875 42.234375 42.96875 37.464844 42.964844 32.699219 Z M 42.964844 32.699219 " fill-opacity="1" fill-rule="nonzero"/></g><g clip-path="url(#9ab1fb7f82)"><path fill="#f9cb08" d="M 58.300781 21.324219 C 57.644531 19.160156 56.996094 17 56.339844 14.835938 C 56.304688 14.726562 56.320312 14.648438 56.386719 14.554688 C 56.910156 13.835938 57.382812 13.085938 57.722656 12.257812 C 57.964844 11.675781 58.160156 11.085938 58.101562 10.441406 C 58.027344 9.621094 57.382812 9.144531 56.570312 9.304688 C 56.164062 9.386719 55.808594 9.570312 55.46875 9.792969 C 54.566406 10.394531 53.84375 11.179688 53.1875 12.027344 C 53.0625 12.1875 52.941406 12.242188 52.742188 12.242188 C 50.515625 12.222656 48.289062 12.210938 46.066406 12.199219 C 45.628906 12.199219 45.285156 12.4375 45.148438 12.832031 C 44.980469 13.339844 45.246094 13.824219 45.804688 14.03125 C 47.277344 14.566406 48.753906 15.101562 50.226562 15.636719 C 50.363281 15.683594 50.5 15.742188 50.644531 15.796875 C 50.617188 15.84375 50.601562 15.875 50.589844 15.898438 C 50.113281 16.804688 49.632812 17.707031 49.171875 18.621094 C 49.070312 18.828125 48.953125 18.890625 48.738281 18.90625 C 47.914062 18.972656 47.085938 19.058594 46.261719 19.144531 C 45.980469 19.175781 45.804688 19.363281 45.777344 19.617188 C 45.746094 19.875 45.886719 20.09375 46.15625 20.199219 C 46.304688 20.257812 46.457031 20.3125 46.609375 20.359375 C 47.167969 20.539062 47.726562 20.714844 48.300781 20.898438 C 48.21875 21.082031 48.222656 21.238281 48.28125 21.375 C 48.015625 21.621094 47.75 21.867188 47.480469 22.109375 C 40.234375 28.84375 32.597656 32.222656 23.105469 34.589844 C 19.128906 35.542969 14.785156 36.117188 10.816406 35.152344 C 9.390625 34.75 7.648438 34.261719 6.726562 33.0625 C 5.410156 30.945312 8.683594 27.378906 9.9375 25.65625 C 3.375 29.671875 1.546875 34.914062 9.808594 38.253906 C 13.78125 39.765625 17.988281 39.75 22.0625 39.113281 C 32.707031 37.265625 42.691406 32.378906 48.457031 22.921875 C 48.691406 22.554688 48.910156 22.175781 49.125 21.792969 C 49.199219 21.769531 49.269531 21.726562 49.34375 21.667969 C 49.394531 21.742188 49.433594 21.800781 49.472656 21.859375 C 49.855469 22.417969 50.230469 22.980469 50.621094 23.527344 C 50.855469 23.855469 51.324219 23.855469 51.511719 23.519531 C 51.585938 23.386719 51.609375 23.195312 51.578125 23.042969 C 51.433594 22.207031 51.265625 21.375 51.097656 20.542969 C 51.070312 20.414062 51.097656 20.34375 51.191406 20.257812 C 51.554688 19.929688 51.914062 19.601562 52.265625 19.261719 C 52.699219 18.84375 53.128906 18.414062 53.570312 17.976562 C 53.613281 18.035156 53.65625 18.085938 53.699219 18.140625 C 54.691406 19.480469 55.679688 20.824219 56.675781 22.160156 C 56.976562 22.566406 57.457031 22.679688 57.871094 22.457031 C 58.28125 22.242188 58.449219 21.789062 58.304688 21.316406 L 58.300781 21.320312 Z M 58.300781 21.324219 " fill-opacity="1" fill-rule="nonzero"/></g></svg>